<svg width="555" height="686" viewBox="0 0 555 686" fill="white" xmlns="http://www.w3.org/2000/svg" [class]="cn('w-6 h-6', className())">
  <path d="M483.333 9.2492C439.733 20.9825 394.133 33.1159 376.267 37.9159L362.4 41.5159L382.133 61.2492C400.133 79.2492 401.6 81.1159 399.867 83.3825C398.8 84.7159 390.533 94.4492 381.333 104.983C372.133 115.649 356.533 133.649 346.667 145.116C336.8 156.583 321.467 174.316 312.667 184.449C303.867 194.583 292.133 208.049 286.667 214.449C281.2 220.716 274.133 228.849 271.067 232.316L265.6 238.583L255.067 227.516C210.933 181.116 196.933 166.449 196.667 166.449C196.533 166.449 188.667 175.249 179.2 186.049C138.667 232.716 126.8 246.316 119.333 255.116C114.933 260.183 110.933 264.716 110.533 265.116C109.6 265.916 72.4 309.116 57.8667 326.316C51.8667 333.383 36.4 351.383 23.4667 366.316L0 393.516V407.649C0 473.383 28.1333 528.316 85.6 574.449C101.067 586.983 145.2 616.583 170.667 631.516C180.533 637.249 205.067 651.783 224.933 663.783L261.333 685.383L280.933 674.316C297.067 665.383 317.6 652.983 319.867 650.983C320 650.849 318.4 646.583 316.133 641.783C311.467 632.049 306.667 613.916 306.667 606.049C306.667 603.383 306.4 601.116 306 601.116C305.6 601.116 302.4 602.849 298.933 605.116C295.333 607.249 292 609.116 291.467 609.116C291.067 609.116 290.667 550.316 290.667 478.316V347.516L279.333 360.849L268 374.316L256.267 362.049C249.733 355.249 236.133 340.983 225.867 330.049L207.333 310.449L206.667 452.183L206 594.049L190.4 585.249C181.733 580.316 174.133 575.783 173.333 574.983C172.533 574.183 172 529.649 172 452.716C171.867 386.183 171.6 331.783 171.467 331.783C170.933 331.783 135.067 372.716 107.333 404.983L87.3333 428.183L86.6667 466.983L86 505.649L79.7333 497.783C68 482.983 56.5333 457.516 54 440.716L53.0667 434.583L62.8 423.516C68.2667 417.383 78.4 405.783 85.3333 397.649C119.467 358.049 131.867 343.783 153.333 319.116C166.133 304.449 181.067 287.249 186.533 280.716C196.267 269.116 196.267 269.116 199.333 271.383C200.933 272.716 216.933 289.249 234.667 308.183C252.533 327.116 267.467 342.183 268 341.516C270.933 337.916 298 306.583 321.467 279.783C336.4 262.583 356.133 239.783 365.333 229.116C374.4 218.449 388.933 201.916 397.333 192.449C413.333 174.449 442.267 140.983 447.867 134.183L451.067 130.183L471.333 150.449C487.867 166.983 491.867 170.316 492.533 168.316C492.933 166.849 496.8 144.449 501.2 118.449C505.6 92.4492 512 55.3825 515.333 36.1825C518.667 16.9825 521.333 0.849199 521.333 0.449199C521.333 -0.750801 518.267 -0.0841341 483.333 9.2492Z" fill="white"/>
  <path d="M220 33.1159C198.4 41.9159 140 65.3826 90.4 85.2492L0 121.516V240.983C0 340.183 0.266667 360.049 1.73333 358.449C3.46667 356.583 20.9333 336.449 41.0667 313.383L50.6667 302.316V228.716V154.983L68.4 147.916C78 143.916 100.4 134.849 118 127.783C135.6 120.583 174.8 104.716 205.2 92.4492L260.4 70.1826L269.867 73.9159C275.067 76.0492 295.467 84.1826 315.333 92.0492C349.467 105.783 351.333 106.316 353.467 104.183C361.2 96.0492 372 82.9826 372 81.7826C372 80.9826 364.667 73.1159 355.733 64.3159L339.333 48.1826L300.267 32.7159C278.8 24.1826 260.8 17.1159 260.267 17.1159C259.733 17.2492 241.6 24.4492 220 33.1159Z" fill="white"/>
  <path d="M518 145.383C517.466 148.583 514.933 163.116 512.4 177.783C509.866 192.449 507.466 206.716 507.066 209.383C506.666 212.183 506 214.449 505.466 214.449C505.066 214.449 496.8 206.449 487.066 196.849L469.333 179.116V283.516C469.333 340.849 469.6 387.783 469.866 387.783C470.133 387.783 472.933 386.849 476.133 385.649C489.066 380.983 503.6 383.516 515.333 392.583L520 396.049V267.916C520 197.516 519.733 139.783 519.466 139.783C519.2 139.783 518.533 142.316 518 145.383Z" fill="white"/>
  <path d="M396.667 226.049C369.067 258.182 354.134 275.249 349.467 280.449C346.8 283.382 340.534 290.449 335.6 296.182L326.667 306.582V414.182V521.782L332.8 512.449C340.267 501.116 345.2 494.849 359.6 478.849C365.734 472.049 370.8 465.649 370.8 464.849C371.2 461.116 370.267 459.116 363.6 448.582C355.067 434.982 350.8 424.716 350.667 417.649C350.667 410.316 357.467 396.982 363.734 392.049C374.534 383.516 392.267 377.249 405.734 377.116H410.667V293.782C410.667 247.916 410.534 210.449 410.4 210.582C410.134 210.582 404 217.649 396.667 226.049Z" fill="white"/>
  <path d="M397.334 395.916C387.467 397.516 376.134 403.516 372.4 408.982C367.6 416.049 368.4 421.516 375.467 433.782C390.267 459.116 391.067 460.849 389.334 465.249C388.4 467.382 388 470.316 388.4 471.916C388.934 474.049 388 475.649 385.067 478.182C377.734 484.316 356.4 508.716 350.267 518.049C342.534 529.782 333.067 548.849 329.6 559.782C321.334 585.649 322.8 614.982 333.334 636.449C347.734 665.649 382.267 682.449 432.667 684.582C469.467 686.182 504.934 676.716 525.334 659.649C552.8 636.849 561.2 600.049 548 559.916C539.867 534.849 525.6 512.449 503.067 489.116C494 479.649 488.134 472.582 488.667 471.649C489.2 470.849 488.934 467.916 488 465.249C486.134 459.382 487.334 456.316 499.2 437.916C510.134 420.849 511.067 417.649 507.334 410.316C504.534 404.982 497.867 401.116 491.2 401.116C488.267 401.116 481.334 402.582 476 404.449C463.334 408.716 454.134 408.716 442 404.316C418 395.516 409.734 393.916 397.334 395.916ZM429.867 420.716C446.267 426.316 450 427.116 459.334 426.982C466.8 426.982 472.4 426.049 477.734 424.182C481.867 422.582 485.334 421.649 485.334 421.916C485.334 422.316 482.134 427.916 478.4 434.449C474.534 440.982 469.6 449.516 467.334 453.382L463.334 460.449H438.667H414L411.6 456.449C404.267 444.716 390.667 420.316 390.667 418.982C390.667 417.116 398.667 414.716 405.867 414.582C408.667 414.449 419.067 417.116 429.867 420.716ZM482.267 496.049C501.734 515.249 512.934 530.049 522 548.449C530.134 564.982 533.067 575.116 534.267 590.449C536.134 615.782 525.334 637.916 505.2 650.049C472.134 669.782 410 670.182 374.4 650.849C359.867 642.982 348.8 627.649 345.2 610.582C342.8 598.982 344.4 577.249 348.667 564.449C352.8 552.049 360 537.916 368.934 525.382C376.134 515.249 402.667 487.382 408.667 483.649C412.267 481.382 415.734 481.116 439.867 481.116H467.067L482.267 496.049Z" fill="white"/>
  <path d="M433.333 519.116C433.333 524.316 432.8 526.449 431.6 526.449C426.267 526.449 415.2 531.116 410.4 535.516C404 541.382 401.333 546.849 401.333 554.716C401.333 566.449 409.467 574.849 425.067 579.382L433.333 581.782V592.982V604.182L427.867 603.382C424.8 602.982 418.8 600.849 414.4 598.716L406.533 594.849L403.2 602.182C401.467 606.182 400 610.049 400 610.716C400 612.849 414.133 618.449 423.6 620.316L432.667 621.916L433.067 628.849L433.467 635.782H440.133H446.667V628.716V621.782L453.6 620.049C474 615.249 483.6 599.249 476 582.849C472.933 575.916 464.133 569.916 453.867 567.649L446.667 566.049V554.849C446.667 544.316 446.8 543.782 449.733 543.782C451.333 543.782 456 545.249 460.133 546.982L467.6 550.049L471.333 542.582C474.8 535.516 474.8 535.116 472.533 533.516C469.333 531.249 454 526.449 449.867 526.449C446.933 526.449 446.667 525.916 446.667 519.116V511.782H440H433.333V519.116ZM433.333 553.116C433.333 562.849 432.933 563.382 427.6 560.982C420.667 557.782 420.4 548.582 427.2 545.382C432.8 542.582 433.333 543.249 433.333 553.116ZM453.067 587.782C460.533 592.316 458.133 600.849 448.8 603.249C444.933 604.182 444.933 604.182 445.733 598.982C446.267 596.182 446.667 591.782 446.667 589.382C446.667 584.449 447.2 584.182 453.067 587.782Z" fill="white"/>
</svg>
